<svg width="40" height="40" viewBox="0 0 40 40" fill="none" xmlns="http://www.w3.org/2000/svg">
<rect width="40" height="40" rx="20" fill="#F90256"/>
<g clip-path="url(#clip0_599_50051)">
<path d="M9.50849 14.079C9.70548 14.0787 9.90056 14.1175 10.0825 14.193C10.2644 14.2685 10.4296 14.3793 10.5685 14.519L18.2415 22.191C18.4736 22.4232 18.7493 22.6074 19.0526 22.7331C19.356 22.8587 19.6811 22.9234 20.0095 22.9234C20.3379 22.9234 20.663 22.8587 20.9664 22.7331C21.2697 22.6074 21.5453 22.4232 21.7775 22.191L29.4385 14.529C29.5769 14.3857 29.7424 14.2714 29.9254 14.1928C30.1084 14.1142 30.3052 14.0728 30.5044 14.0711C30.7036 14.0694 30.9011 14.1073 31.0854 14.1827C31.2698 14.2582 31.4372 14.3695 31.5781 14.5104C31.7189 14.6512 31.8303 14.8187 31.9057 15.003C31.9811 15.1874 32.0191 15.3849 32.0174 15.5841C32.0156 15.7832 31.9743 15.9801 31.8956 16.1631C31.817 16.3461 31.7028 16.5116 31.5595 16.65L23.8985 24.312C22.8664 25.3421 21.4677 25.9207 20.0095 25.9207C18.5513 25.9207 17.1526 25.3421 16.1205 24.312L8.44749 16.64C8.23758 16.4302 8.09461 16.1629 8.03667 15.8718C7.97874 15.5807 8.00844 15.279 8.12203 15.0049C8.23562 14.7307 8.42798 14.4964 8.67478 14.3316C8.92158 14.1667 9.21172 14.0788 9.50849 14.079Z" fill="white"/>
</g>
<defs>
<clipPath id="clip0_599_50051">
<rect width="24" height="24" fill="white" transform="translate(8 8)"/>
</clipPath>
</defs>
</svg>
