<svg width="40" height="40" viewBox="0 0 40 40" fill="none" xmlns="http://www.w3.org/2000/svg">
<g clip-path="url(#clip0_671_964)">
<path d="M31.8708 30.6574L38.4025 24.1257C39.4631 23.0143 40.0548 21.537 40.0548 20.0007C40.0548 18.4644 39.4631 16.9871 38.4025 15.8757L31.8708 9.34404C31.402 8.87505 30.7661 8.61148 30.103 8.61133C29.4399 8.61117 28.8039 8.87444 28.3349 9.34321C27.866 9.81198 27.6024 10.4479 27.6022 11.111C27.6021 11.774 27.8653 12.4101 28.3341 12.879L32.9674 17.514L2.55078 17.5524C1.88774 17.5524 1.25186 17.8158 0.783014 18.2846C0.314173 18.7535 0.0507813 19.3893 0.0507812 20.0524C0.0507813 20.7154 0.314173 21.3513 0.783014 21.8201C1.25186 22.289 1.88774 22.5524 2.55078 22.5524L32.9358 22.514L28.3341 27.1224C27.8787 27.5939 27.6267 28.2254 27.6324 28.8809C27.6381 29.5364 27.9011 30.1634 28.3646 30.6269C28.8281 31.0905 29.4551 31.3534 30.1106 31.3591C30.7661 31.3648 31.3993 31.1128 31.8708 30.6574Z" fill="white"/>
</g>
<defs>
<clipPath id="clip0_671_964">
<rect width="40" height="40" fill="white"/>
</clipPath>
</defs>
</svg>
