<svg width="25" height="24" viewBox="0 0 25 24" fill="none" xmlns="http://www.w3.org/2000/svg">
<path d="M20.6652 7.66665H14.8319V6H20.6652V7.66665ZM22.1035 15.9999C21.7352 17.0807 20.4127 18.4999 17.8527 18.4999C15.2911 18.4999 13.2161 17.059 13.2161 13.7707C13.2161 10.5125 15.1536 8.83747 17.771 8.83747C20.3393 8.83747 21.9077 10.3225 22.2501 12.5258C22.3151 12.9474 22.341 13.5158 22.3293 14.3091H15.6402C15.7486 16.9849 18.5427 17.069 19.4635 15.9999H22.1035ZM15.6986 12.6666H19.836C19.7485 11.3774 18.8894 10.8174 17.7719 10.8174C16.5502 10.8174 15.8744 11.4574 15.6986 12.6666ZM7.72031 18.4899H2.33203V6.0175H8.12614C12.6894 6.085 12.7761 10.5541 10.3928 11.7724C13.2769 12.8224 13.3736 18.4899 7.72031 18.4899ZM4.832 10.9999H7.81864C9.90862 10.9999 10.2403 8.49997 7.55864 8.49997H4.832V10.9999ZM7.65781 13.4999H4.832V16.0132H7.61614C10.1619 16.0132 10.0061 13.4999 7.65781 13.4999Z" fill="#F90256"/>
</svg>
