<svg width="164" height="48" viewBox="0 0 164 48" fill="none" xmlns="http://www.w3.org/2000/svg">
<path d="M19.4894 48C15.6771 48 12.2927 47.1835 9.33625 45.5505C6.41867 43.8785 4.12351 41.5457 2.45077 38.5518C0.816922 35.519 0 31.9613 0 27.8788C0 23.7962 0.816922 20.258 2.45077 17.2641C4.12351 14.2313 6.41867 11.8985 9.33625 10.2654C12.2927 8.59352 15.6771 7.75757 19.4894 7.75757C22.8738 7.75757 25.9081 8.36023 28.5923 9.56556C31.2764 10.732 33.3771 12.4039 34.8942 14.5813C36.4503 16.7198 37.2283 19.286 37.2283 22.2798V22.9797H32.7352V22.2798C32.7352 18.936 31.6071 16.3504 29.3508 14.523C27.0946 12.6955 23.8269 11.7818 19.5478 11.7818C16.319 11.7818 13.557 12.4039 11.2619 13.6481C9.00559 14.8535 7.29394 16.642 6.12691 19.0138C4.95988 21.3856 4.37637 24.3406 4.37637 27.8788C4.37637 31.3781 4.95988 34.3331 6.12691 36.7438C7.29394 39.1156 9.00559 40.9235 11.2619 42.1678C13.557 43.3731 16.319 43.9758 19.5478 43.9758C23.8269 43.9758 27.0946 43.062 29.3508 41.2346C31.6071 39.4072 32.7352 36.8215 32.7352 33.4777V32.7779H37.2283V33.4777C37.2283 36.4327 36.4503 38.9989 34.8942 41.1763C33.3771 43.3536 31.2764 45.045 28.5923 46.2503C25.9081 47.4168 22.8738 48 19.4894 48Z" fill="white"/>
<path d="M143.788 48H139.645V18.6055H143.379V26.479V26.7123L143.788 27.0039V48Z" fill="white"/>
<path d="M129.1 39.5433L128.808 39.31V34.7608C128.808 37.0548 128.244 38.9406 127.116 40.4181C125.988 41.8956 124.49 43.0037 122.623 43.7425C120.756 44.4423 118.636 44.7923 116.263 44.7923C114.084 44.7923 112.489 44.4229 111.478 43.6841C110.466 42.9065 109.961 41.7984 109.961 40.3598C109.961 38.8434 110.486 37.7741 111.536 37.152C112.587 36.5299 114.201 36.1217 116.379 35.9273L128.808 34.5346V31.7923L115.096 33.3028C113.306 33.5361 111.711 33.9249 110.311 34.4692C108.91 35.0135 107.802 35.7912 106.985 36.8021C106.207 37.7741 105.818 39.0572 105.818 40.6514C105.818 42.9454 106.693 44.7534 108.444 46.0754C110.194 47.3584 112.489 48 115.329 48C118.714 48 121.592 47.2807 123.965 45.8421C126.338 44.3646 127.952 42.3038 128.808 39.6599H129.1V39.5433Z" fill="white"/>
<path d="M48.4322 46.192C50.7274 47.3973 53.4116 48 56.4848 48H89.055C91.5446 48 93.7425 47.6889 95.6487 47.0668C97.5937 46.4447 99.1109 45.5116 100.2 44.2674C101.328 43.0232 101.892 41.5068 101.892 39.7182C101.892 37.3853 101.075 35.6357 99.4415 34.4692C97.8077 33.3028 95.4542 32.5057 92.381 32.078L85.3204 31.0865C82.9475 30.6977 81.2942 30.1922 80.3606 29.5701C79.4658 28.9091 79.0185 27.8399 79.0185 26.3624C79.0185 24.6516 79.6798 23.4074 81.0024 22.6298C82.364 21.8521 84.4809 21.3333 87.5151 21.3333H120.242C123.432 21.3333 125.502 22.3576 126.824 23.5629C128.147 24.7683 128.808 26.7707 128.808 29.5701V31.7923V34.5346V34.7608V39.31L129.1 39.5433V39.6599V48H132.835V29.3952C132.835 27.2567 132.407 25.332 131.551 23.6212C130.695 21.9105 129.333 20.5496 127.466 19.5387C125.638 18.5278 123.16 17.9394 120.242 17.9394H87.7576C85.1123 17.9394 82.7919 18.3722 80.8857 19.0721C78.9796 19.7331 77.5014 20.6857 76.451 21.9299C75.4396 23.1352 74.9339 24.5933 74.9339 26.3041C74.9339 28.7147 75.6924 30.4838 77.2096 31.6114C78.7656 32.739 80.8663 33.4777 83.5116 33.8277L91.214 34.9358C93.6258 35.3246 95.318 35.8495 96.2905 36.5105C97.302 37.1326 97.8077 38.2018 97.8077 39.7182C97.8077 41.3512 97.1658 42.576 95.8821 43.3925C94.5983 44.1702 92.4409 44.6061 89.2121 44.6061H56.4848C52.5169 44.6061 49.5993 43.5675 47.8487 41.5845C46.2281 39.7487 45.3576 37.2797 45.2374 34.1776C45.2277 33.9289 45.2229 33.6762 45.2229 33.4194V32.4862C45.2229 32.1891 45.2295 31.8974 45.2427 31.6114C45.3816 28.6042 46.2502 26.213 47.8487 24.4378C49.5993 22.4548 52.4391 21.4633 56.3681 21.4633C59.7913 21.4633 62.4172 22.2604 64.2455 23.8545C66.0739 25.4098 66.988 27.7038 66.988 30.7366C66.988 31.0378 66.9784 31.3294 66.9591 31.6114H45.2427C45.2295 31.8974 45.2229 32.1891 45.2229 32.4862V33.4194C45.2229 33.6762 45.2277 33.9289 45.2374 34.1776H70.6058C70.6836 33.7888 70.742 33.3805 70.7809 32.9528C70.8587 32.4862 70.8976 32.0002 70.8976 31.4948C70.8976 28.6175 70.2752 26.1874 69.0303 24.2045C67.7855 22.1826 66.0739 20.6468 63.8954 19.597C61.7559 18.5472 59.2662 18.0223 56.4264 18.0223C53.3532 18.0223 50.6691 18.6638 48.3739 19.9469C46.1176 21.23 44.3671 22.9991 43.1223 25.2543C41.9163 27.5094 41.3134 30.095 41.3134 33.0111C41.3134 36.0439 41.9163 38.6879 43.1223 40.943C44.3671 43.1981 46.1371 44.9478 48.4322 46.192Z" fill="white"/>
<path d="M143.379 26.7123L143.788 27.0039V31.7864C143.788 28.5203 144.449 26.0125 145.772 24.2628C147.133 22.5131 149.273 21.6383 152.19 21.6383C154.719 21.6383 156.528 22.241 157.617 23.4463C158.706 24.6516 159.251 26.479 159.251 28.9286V31.1448H163V28.287C163 26.4985 163.063 24.8266 162.402 23.2713C161.741 21.7161 160.69 20.4524 159.251 19.4804C157.851 18.5083 156.042 18.0223 153.824 18.0223C151.801 18.0223 150.09 18.4111 148.689 19.1887C147.289 19.9275 146.161 20.9384 145.305 22.2215C144.488 23.5046 143.943 24.9238 143.671 26.479H143.379V26.7123Z" fill="white"/>
<path d="M66.0356 8.14973C66.3973 8.40188 66.2793 8.96474 65.8468 9.05037L57.0447 10.7932C56.6292 10.8754 56.3061 10.4363 56.5081 10.0641L60.8469 2.07302C61.0604 1.67984 61.6433 1.74347 61.7669 2.17345L62.7966 5.75531C62.8283 5.86563 62.897 5.96168 62.9912 6.02733L66.0356 8.14973Z" fill="white"/>
</svg>
