<svg width="80" height="80" viewBox="0 0 80 80" fill="none" xmlns="http://www.w3.org/2000/svg">
<g clip-path="url(#clip0_602_50160)">
<path d="M14.1667 6.44812e-06H65.8333C67.6942 -0.00179242 69.5372 0.372807 71.2568 1.10237C72.9763 1.83193 74.5387 2.90212 75.8546 4.25171C77.1704 5.60129 78.2139 7.20377 78.9252 8.96743C79.6365 10.7311 80.0017 12.6213 80 14.5299V65.4701C80.0017 67.3787 79.6365 69.2689 78.9252 71.0326C78.2139 72.7962 77.1704 74.3987 75.8546 75.7483C74.5387 77.0979 72.9763 78.1681 71.2568 78.8976C69.5372 79.6272 67.6942 80.0018 65.8333 80H14.1667C12.3058 80.0018 10.4628 79.6272 8.74325 78.8976C7.02368 78.1681 5.46126 77.0979 4.14541 75.7483C2.82957 74.3987 1.78613 72.7962 1.07481 71.0326C0.363487 69.2689 -0.00174761 67.3787 6.28692e-06 65.4701V14.5299C-0.00174761 12.6213 0.363487 10.7311 1.07481 8.96743C1.78613 7.20377 2.82957 5.60129 4.14541 4.25171C5.46126 2.90212 7.02368 1.83193 8.74325 1.10237C10.4628 0.372807 12.3058 -0.00179242 14.1667 6.44812e-06Z" fill="#EFEFEF"/>
<path d="M63.5618 13.3334L59.2775 61.3278L40.0197 66.6667L20.8149 61.3353L16.5352 13.3334H63.5618Z" fill="#264DE4"/>
<path d="M55.6121 58.2717L59.2732 17.2583H40.0508V62.5859L55.6121 58.2717Z" fill="#2965F1"/>
<path d="M26.3477 35.0614L26.8753 40.9486H40.0498V35.0614H26.3477Z" fill="#EBEBEB"/>
<path d="M40.0476 23.1454H40.0272H25.2852L25.8203 29.0327H40.0476V23.1454Z" fill="#EBEBEB"/>
<path d="M40.0482 56.4766V50.3514L40.0224 50.3582L33.4657 48.5878L33.0466 43.8925H29.8606H27.1367L27.9615 53.1363L40.0211 56.4841L40.0482 56.4766Z" fill="#EBEBEB"/>
<path d="M47.2768 40.9485L46.5935 48.5838L40.0273 50.356V56.481L52.0965 53.136L52.1851 52.1414L53.5685 36.6422L53.7121 35.0613L54.775 23.1454H40.0273V29.0327H48.3231L47.7874 35.0613H40.0273V40.9485H47.2768Z" fill="white"/>
</g>
<defs>
<clipPath id="clip0_602_50160">
<rect width="80" height="80" fill="white"/>
</clipPath>
</defs>
</svg>
