<svg width="80" height="80" viewBox="0 0 80 80" fill="none" xmlns="http://www.w3.org/2000/svg">
<g clip-path="url(#clip0_602_50150)">
<path d="M14.1667 6.44812e-06H65.8333C67.6942 -0.00179242 69.5372 0.372807 71.2568 1.10237C72.9763 1.83193 74.5387 2.90212 75.8546 4.25171C77.1704 5.60129 78.2139 7.20377 78.9252 8.96743C79.6365 10.7311 80.0017 12.6213 80 14.5299V65.4701C80.0017 67.3787 79.6365 69.2689 78.9252 71.0326C78.2139 72.7962 77.1704 74.3987 75.8546 75.7483C74.5387 77.0979 72.9763 78.1681 71.2568 78.8976C69.5372 79.6272 67.6942 80.0018 65.8333 80H14.1667C12.3058 80.0018 10.4628 79.6272 8.74325 78.8976C7.02368 78.1681 5.46126 77.0979 4.14541 75.7483C2.82957 74.3987 1.78613 72.7962 1.07481 71.0326C0.363487 69.2689 -0.00174761 67.3787 6.28692e-06 65.4701V14.5299C-0.00174761 12.6213 0.363487 10.7311 1.07481 8.96743C1.78613 7.20377 2.82957 5.60129 4.14541 4.25171C5.46126 2.90212 7.02368 1.83193 8.74325 1.10237C10.4628 0.372807 12.3058 -0.00179242 14.1667 6.44812e-06Z" fill="#EFEFEF"/>
<path d="M20.8132 61.3513L16.5352 13.3332H63.5681L59.29 61.3254L40.0127 66.6665" fill="#E44D26"/>
<path d="M40.0508 62.5834V17.2747H59.2762L55.6074 58.2405" fill="#F16529"/>
<path d="M25.2734 23.147H40.0522V29.0326H31.7294L32.2739 35.0608H40.0522V40.9335H26.881L25.2734 23.147ZM27.1402 43.8892H33.0518L33.4666 48.5951L40.0522 50.3582V56.5031L27.9699 53.1325" fill="#EBEBEB"/>
<path d="M54.7802 23.147H40.0273V29.0326H54.2357L54.7802 23.147ZM53.7042 35.0608H40.0273V40.9464H47.2871L46.6 48.5951L40.0273 50.3582V56.4771L52.0837 53.1325" fill="white"/>
</g>
<defs>
<clipPath id="clip0_602_50150">
<rect width="80" height="80" fill="white"/>
</clipPath>
</defs>
</svg>
