<svg width="24" height="24" viewBox="0 0 24 24" fill="none" xmlns="http://www.w3.org/2000/svg">
<g clip-path="url(#clip0_841_2170)">
<path d="M13.0603 12L20.7801 4.2802C20.9167 4.13875 20.9923 3.9493 20.9906 3.75265C20.9889 3.556 20.91 3.36789 20.771 3.22884C20.6319 3.08978 20.4438 3.0109 20.2471 3.0092C20.0505 3.00749 19.861 3.08308 19.7196 3.2197L11.9998 10.9395L4.28009 3.2197C4.13864 3.08308 3.94919 3.00749 3.75254 3.0092C3.55589 3.0109 3.36778 3.08978 3.22873 3.22884C3.08967 3.36789 3.01079 3.556 3.00908 3.75265C3.00738 3.9493 3.08297 4.13875 3.21959 4.2802L10.9393 12L3.21959 19.7197C3.07899 19.8603 3 20.0511 3 20.2499C3 20.4488 3.07899 20.6396 3.21959 20.7802V20.7802C3.36024 20.9208 3.55097 20.9998 3.74984 20.9998C3.94871 20.9998 4.13944 20.9208 4.28009 20.7802L11.9998 13.0605L19.7196 20.7802C19.8602 20.9208 20.051 20.9998 20.2498 20.9998C20.4487 20.9998 20.6394 20.9208 20.7801 20.7802C20.9207 20.6396 20.9997 20.4488 20.9997 20.2499C20.9997 20.0511 20.9207 19.8603 20.7801 19.7197L13.0603 12Z" fill="white"/>
</g>
<defs>
<clipPath id="clip0_841_2170">
<rect width="18" height="18" fill="white" transform="translate(3 3)"/>
</clipPath>
</defs>
</svg>
