<svg width="80" height="80" viewBox="0 0 80 80" fill="none" xmlns="http://www.w3.org/2000/svg">
<path d="M66 0H14C6.26801 0 0 6.26801 0 14V66C0 73.732 6.26801 80 14 80H66C73.732 80 80 73.732 80 66V14C80 6.26801 73.732 0 66 0Z" fill="#2E0501"/>
<path d="M40.6635 48.8476H28.6263L25.617 57.9823C25.5824 58.2607 25.3921 58.3999 25.0462 58.3999H19.5983C19.2524 58.3999 19.1314 58.2259 19.2351 57.8779L30.0272 26.872C30.2693 26.35 30.4249 25.3756 30.4941 23.9489C30.4941 23.7401 30.6152 23.6357 30.8573 23.6357H38.3287C38.5016 23.6357 38.64 23.7227 38.7438 23.8967L50.781 57.9301C50.8848 58.2433 50.781 58.3999 50.4697 58.3999H44.3473C44.1052 58.3999 43.9322 58.2781 43.8285 58.0345L40.6635 48.8476ZM29.9753 43.7843H39.3145C39.1761 43.2971 38.4498 41.0874 37.1353 37.1551C35.8555 33.188 35.0081 30.4737 34.593 29.0121H34.5411C34.126 30.7869 32.6041 35.7109 29.9753 43.7843Z" fill="#F2A032"/>
<path d="M54.0023 57.9301V33.3968C54.0023 33.1184 54.1407 32.9792 54.4174 32.9792H60.1766C60.4533 32.9792 60.5917 33.1184 60.5917 33.3968V57.9823C60.5917 58.2607 60.4533 58.3999 60.1766 58.3999H54.4693C54.158 58.3999 54.0023 58.2433 54.0023 57.9301ZM59.8653 27.7071C59.2427 28.3335 58.3952 28.6467 57.3229 28.6467C56.2507 28.6467 55.4032 28.3335 54.7806 27.7071C54.158 27.0808 53.8467 26.2282 53.8467 25.1494C53.8467 24.1054 54.1753 23.2529 54.8325 22.5917C55.4897 21.9305 56.3371 21.5999 57.3748 21.5999C58.4125 21.5999 59.2427 21.9305 59.8653 22.5917C60.4879 23.2529 60.7992 24.1054 60.7992 25.1494C60.7992 26.2282 60.4879 27.0808 59.8653 27.7071Z" fill="#F2A032"/>
</svg>
