<svg width="1444" height="538" viewBox="0 0 1444 538" fill="none" xmlns="http://www.w3.org/2000/svg">
<path d="M0 537C227.028 537 1099.51 537 1099.51 537C1143.94 537 1183.39 531.454 1217.41 520.361C1252.13 509.269 1279.21 492.63 1298.65 470.445C1318.79 448.26 1328.85 421.222 1328.85 389.331C1328.85 347.734 1314.27 316.536 1285.11 295.737C1255.95 274.939 1213.94 260.727 1159.09 253.1L1033.07 235.422C990.711 228.489 961.202 219.476 944.538 208.384C928.568 196.598 920.583 177.532 920.583 151.188C920.583 120.683 932.387 98.4982 955.994 84.6325C980.296 70.7669 1022.41 62 1076.57 62H1444M0 476C228.123 476 1099.51 476 1099.51 476C1157.14 476 1198.67 468.712 1221.58 454.846C1244.49 440.287 1255.95 418.448 1255.95 389.331C1255.95 362.293 1246.92 343.227 1228.87 332.135C1211.51 320.349 1181.31 310.99 1138.26 304.057L1000.78 284.298C953.564 278.059 916.07 264.886 888.296 244.781C861.217 224.676 847.547 193.179 847.547 150.196C847.547 119.691 856.704 93.6452 874.757 72.1534C893.504 49.9683 919.889 32.9829 953.911 21.1971C987.934 8.71799 1029.35 1 1076.57 1H1444" stroke="#F90256" stroke-width="2"/>
</svg>
