<svg width="80" height="80" viewBox="0 0 80 80" fill="none" xmlns="http://www.w3.org/2000/svg">
<g clip-path="url(#clip0_602_50172)">
<path d="M14.1667 6.44812e-06H65.8333C67.6942 -0.00179242 69.5372 0.372807 71.2568 1.10237C72.9763 1.83193 74.5387 2.90212 75.8546 4.25171C77.1704 5.60129 78.2139 7.20377 78.9252 8.96743C79.6365 10.7311 80.0017 12.6213 80 14.5299V65.4701C80.0017 67.3787 79.6365 69.2689 78.9252 71.0326C78.2139 72.7962 77.1704 74.3987 75.8546 75.7483C74.5387 77.0979 72.9763 78.1681 71.2568 78.8976C69.5372 79.6272 67.6942 80.0018 65.8333 80H14.1667C12.3058 80.0018 10.4628 79.6272 8.74325 78.8976C7.02368 78.1681 5.46126 77.0979 4.14541 75.7483C2.82957 74.3987 1.78613 72.7962 1.07481 71.0326C0.363487 69.2689 -0.00174761 67.3787 6.28692e-06 65.4701V14.5299C-0.00174761 12.6213 0.363487 10.7311 1.07481 8.96743C1.78613 7.20377 2.82957 5.60129 4.14541 4.25171C5.46126 2.90212 7.02368 1.83193 8.74325 1.10237C10.4628 0.372807 12.3058 -0.00179242 14.1667 6.44812e-06Z" fill="#F7DF1E"/>
<path d="M53.8748 62.5967C55.4862 65.2278 57.5827 67.1618 61.2906 67.1618C64.4056 67.1618 66.3954 65.605 66.3954 63.4539C66.3954 60.8761 64.351 59.9631 60.9224 58.4634L59.043 57.657C53.6183 55.3459 50.0145 52.4507 50.0145 46.3301C50.0145 40.692 54.3103 36.3999 61.024 36.3999C65.8037 36.3999 69.2399 38.0634 71.716 42.4189L65.8621 46.1777C64.5732 43.8666 63.1827 42.9561 61.024 42.9561C58.8221 42.9561 57.4265 44.3529 57.4265 46.1777C57.4265 48.4329 58.8233 49.3459 62.0487 50.7428L63.9281 51.5478C70.3154 54.2869 73.9218 57.0793 73.9218 63.3574C73.9218 70.1256 68.6049 73.8336 61.4646 73.8336C54.483 73.8336 49.9725 70.5066 47.7656 66.1459L53.8748 62.5967ZM27.3186 63.2482C28.4995 65.3434 29.5738 67.1148 32.1567 67.1148C34.6265 67.1148 36.1846 66.1485 36.1846 62.391V36.8291H43.7021V62.4926C43.7021 70.2767 39.1383 73.8196 32.4767 73.8196C26.4576 73.8196 22.9719 70.7047 21.1992 66.9529L27.3186 63.2482Z" fill="black"/>
</g>
<defs>
<clipPath id="clip0_602_50172">
<rect width="80" height="80" fill="white"/>
</clipPath>
</defs>
</svg>
