<svg width="24" height="24" viewBox="0 0 24 24" fill="none" xmlns="http://www.w3.org/2000/svg">
<g clip-path="url(#clip0_671_878)">
<path d="M12.0005 0.0419922C9.35447 0.0449033 6.81761 1.09727 4.94647 2.96822C3.07533 4.83918 2.02271 7.37593 2.01953 10.022C2.01953 12.592 4.00953 16.614 7.93453 21.976C8.40179 22.6161 9.01359 23.1369 9.72013 23.4959C10.4267 23.8549 11.208 24.042 12.0005 24.042C12.7931 24.042 13.5744 23.8549 14.2809 23.4959C14.9875 23.1369 15.5993 22.6161 16.0665 21.976C19.9915 16.614 21.9815 12.592 21.9815 10.022C21.9784 7.37593 20.9257 4.83918 19.0546 2.96822C17.1835 1.09727 14.6466 0.0449033 12.0005 0.0419922ZM12.0005 14C11.2094 14 10.436 13.7654 9.77825 13.3259C9.12045 12.8863 8.60776 12.2616 8.30501 11.5307C8.00226 10.7998 7.92305 9.99556 8.07739 9.21963C8.23173 8.44371 8.61269 7.73098 9.1721 7.17157C9.73151 6.61216 10.4442 6.23119 11.2202 6.07685C11.9961 5.92251 12.8004 6.00172 13.5313 6.30448C14.2622 6.60723 14.8869 7.11992 15.3264 7.77771C15.7659 8.43551 16.0005 9.20887 16.0005 9.99999C16.0005 11.0609 15.5791 12.0783 14.829 12.8284C14.0788 13.5786 13.0614 14 12.0005 14Z" fill="#F90256"/>
</g>
<defs>
<clipPath id="clip0_671_878">
<rect width="24" height="24" fill="white"/>
</clipPath>
</defs>
</svg>
