<svg width="80" height="80" viewBox="0 0 80 80" fill="none" xmlns="http://www.w3.org/2000/svg">
<g clip-path="url(#clip0_602_50113)">
<path d="M14.1667 6.44812e-06H65.8333C67.6942 -0.00179242 69.5372 0.372807 71.2568 1.10237C72.9763 1.83193 74.5387 2.90212 75.8546 4.25171C77.1704 5.60129 78.2139 7.20377 78.9252 8.96743C79.6365 10.7311 80.0018 12.6213 80 14.5299V65.4701C80.0018 67.3787 79.6365 69.2689 78.9252 71.0326C78.2139 72.7962 77.1704 74.3987 75.8546 75.7483C74.5387 77.0979 72.9763 78.1681 71.2568 78.8976C69.5372 79.6272 67.6942 80.0018 65.8333 80H14.1667C12.3058 80.0018 10.4628 79.6272 8.74325 78.8976C7.02368 78.1681 5.46126 77.0979 4.14541 75.7483C2.82957 74.3987 1.78613 72.7962 1.07481 71.0326C0.363487 69.2689 -0.00174761 67.3787 6.28692e-06 65.4701V14.5299C-0.00174761 12.6213 0.363487 10.7311 1.07481 8.96743C1.78613 7.20377 2.82957 5.60129 4.14541 4.25171C5.46126 2.90212 7.02368 1.83193 8.74325 1.10237C10.4628 0.372807 12.3058 -0.00179242 14.1667 6.44812e-06Z" fill="#1FB6FF"/>
<path d="M63.1053 44.1317C39.058 42.3217 19.1849 47.9733 14.7153 50.0789C12.2404 51.187 12.0557 52.5907 12.4251 53.3664C12.7575 53.9574 13.9396 54.3268 15.2324 53.6619C24.7627 48.6013 44.0817 44.575 63.1053 45.7201C63.5485 45.7201 63.9179 45.3507 63.9179 44.9074C63.9179 44.5011 63.5485 44.1317 63.1053 44.1317ZM69.0524 37.0394C68.0551 38.1476 66.5775 38.9972 66.0973 38.5909C65.6541 38.1845 66.0973 36.8547 66.0973 36.8547C68.4614 35.3402 73.0418 31.4986 73.0418 28.5435C73.0418 25.81 70.5669 24.9604 67.9443 27.5092C65.8388 29.7625 64.2873 32.4959 63.4747 35.488C62.1079 36.8178 59.9655 38.517 58.0077 38.517C57.0103 38.517 56.7148 37.8151 56.8626 36.8547C58.5248 36.8178 63.1053 35.5619 63.1053 31.7572C63.1053 31.1292 62.8098 30.5382 62.3665 30.0949C61.8863 29.6516 61.2583 29.4669 60.6304 29.5039C58.5618 29.5039 55.9022 31.6094 54.6093 34.5645C54.2399 34.4906 53.9075 34.3798 53.575 34.2321C53.9075 33.4933 54.203 32.7545 54.3877 31.9788C54.6832 30.4274 54.0183 29.4669 52.7254 29.5778C51.9128 29.6516 50.9154 30.3535 50.7307 31.9788C50.6569 32.7914 50.8046 33.641 51.174 34.3798C50.6199 36.1159 48.2928 38.2953 47.517 38.2215C46.7413 38.1476 47.6279 35.0447 48.4036 32.7545C48.8468 32.3112 49.1793 31.7941 49.4009 31.2031C49.6226 30.7598 49.4748 30.2057 49.0315 29.9471C47.8495 29.5039 46.5197 30.058 46.0025 31.2031C45.6701 31.7572 45.4115 32.3482 45.1899 32.9392C44.5619 33.7149 43.5276 34.6753 43.2321 34.6015C42.7889 34.3059 44.2295 32.4221 44.0448 31.3878C43.897 30.5012 43.1213 29.9102 42.2348 29.9841C40.9419 30.1688 39.2058 32.6068 39.2058 32.6068C39.3905 32.1635 39.5382 31.6833 39.5752 31.2031C39.5013 30.2796 37.7652 29.8733 36.9156 31.5355C36.3246 33.1239 35.8813 34.7861 35.6227 36.4853C35.2533 37.2611 33.8127 39.5143 32.6676 39.5882C31.7441 39.6621 32.8892 35.5988 33.037 35.3772C33.5541 34.6015 34.1821 32.9761 34.0343 32.2743C34.0343 31.9418 33.8866 31.6094 33.628 31.3878C33.3694 31.1661 33.0001 31.1292 32.6676 31.2031C32.0766 31.3508 31.5964 31.7202 31.3009 32.2374C30.8945 31.7202 30.2296 31.4986 29.5647 31.6094C25.76 32.0157 23.3221 38.5539 23.5806 41.6198C23.8023 43.2821 24.578 44.2795 26.0555 44.0948C27.7178 43.8731 29.0845 41.509 29.0845 41.509C29.0845 41.509 29.4539 43.4668 31.227 43.2452C32.5568 42.8388 33.7388 42.0262 34.5884 40.918C34.5515 41.0288 34.5145 41.1396 34.5145 41.2505C34.219 42.9127 36.9895 42.728 37.248 41.4721C38.0607 35.2294 40.2031 32.6437 40.8311 32.6437C41.3482 32.6437 39.4644 35.5988 40.5356 36.707C41.3482 37.7043 42.8258 36.9286 44.0448 35.8943C43.8232 36.67 43.7123 37.4827 43.6754 38.2953C43.6015 40.0315 44.2295 41.4352 45.9656 41.3982C48.2558 41.3243 50.6938 38.517 52.2822 35.8574C52.6885 36.1159 53.1687 36.3006 53.6489 36.4115C53.5011 37.0394 53.4273 37.6674 53.4642 38.3323C53.612 40.3639 55.0526 41.1396 56.7148 41.0658C58.6726 40.9919 60.9628 39.5143 62.5142 38.1845C62.5142 38.2584 62.4773 38.3323 62.4404 38.4062C62.2926 39.4035 62.5143 41.2135 63.9549 41.2874C65.6171 41.4352 68.4614 39.736 69.902 37.9998C71.121 37.2241 69.939 36.1159 69.0524 37.0394ZM70.6039 28.5804C70.7886 28.5804 70.8994 28.7651 70.8994 28.9129C70.8994 30.649 66.4298 34.3798 66.4298 34.3798C66.4298 34.3798 69.3479 28.5804 70.6039 28.5804ZM59.8546 32.2374C60.0024 32.2374 60.1502 32.2743 60.261 32.3851C60.3718 32.4959 60.4087 32.6437 60.3718 32.7914C60.3718 33.7888 59.0051 34.5276 57.4906 34.5276C58.3032 33.3825 59.2267 32.2374 59.8546 32.2374ZM30.1188 34.9708C29.9711 36.0051 28.1241 40.7333 27.0898 40.7333C25.797 40.8072 27.7178 34.0843 29.8233 34.1212C30.2296 34.1212 30.2296 34.4168 30.1188 34.9708ZM13.9396 36.2268C15.1586 36.2268 12.9422 42.4694 13.2377 45.2029C13.5332 47.9364 16.5992 47.1607 16.3775 45.5354C16.0081 42.8758 17.892 34.3798 19.739 34.3798C21.1057 34.3798 18.2245 40.2162 18.8155 43.8362C19.1849 46.2372 22.4725 45.4984 22.1031 43.9839C21.1057 39.2188 24.4672 34.6015 24.0239 31.24C23.8023 29.8363 23.0265 29.0606 22.0661 29.0606C18.9633 29.0606 16.4514 35.2294 16.4514 35.2294C16.4514 35.2294 16.7469 31.7202 14.2351 31.5725C10.6151 31.3878 6.88423 40.3639 6.95811 48.4905C7.03199 51.0762 10.3196 50.6699 10.0979 48.5644C9.91322 44.9444 12.0557 36.2268 13.9396 36.2268Z" fill="white"/>
</g>
<defs>
<clipPath id="clip0_602_50113">
<rect width="80" height="80" fill="white"/>
</clipPath>
</defs>
</svg>
