<svg width="25" height="24" viewBox="0 0 25 24" fill="none" xmlns="http://www.w3.org/2000/svg">
<g clip-path="url(#clip0_671_874)">
<path d="M23.6683 10.9998C23.403 10.9998 23.1487 10.8944 22.9612 10.7069C22.7736 10.5194 22.6683 10.265 22.6683 9.99981C22.6661 7.87873 21.8226 5.84512 20.3228 4.34529C18.8229 2.84546 16.7893 2.00192 14.6683 1.99981C14.403 1.99981 14.1487 1.89445 13.9612 1.70691C13.7736 1.51938 13.6683 1.26502 13.6683 0.999807C13.6683 0.73459 13.7736 0.480236 13.9612 0.2927C14.1487 0.105163 14.403 -0.000193459 14.6683 -0.000193459C17.3195 0.00271814 19.8614 1.05722 21.7361 2.93195C23.6108 4.80669 24.6654 7.34854 24.6683 9.99981C24.6683 10.265 24.5629 10.5194 24.3754 10.7069C24.1878 10.8944 23.9335 10.9998 23.6683 10.9998ZM20.6683 9.99981C20.6683 8.40851 20.0361 6.88238 18.9109 5.75717C17.7857 4.63195 16.2596 3.99981 14.6683 3.99981C14.403 3.99981 14.1487 4.10516 13.9612 4.2927C13.7736 4.48024 13.6683 4.73459 13.6683 4.99981C13.6683 5.26502 13.7736 5.51938 13.9612 5.70691C14.1487 5.89445 14.403 5.99981 14.6683 5.99981C15.7291 5.99981 16.7465 6.42123 17.4967 7.17138C18.2468 7.92153 18.6683 8.93894 18.6683 9.99981C18.6683 10.265 18.7736 10.5194 18.9612 10.7069C19.1487 10.8944 19.403 10.9998 19.6683 10.9998C19.9335 10.9998 20.1878 10.8944 20.3754 10.7069C20.5629 10.5194 20.6683 10.265 20.6683 9.99981ZM22.8513 22.1638L23.7613 21.1148C24.3405 20.5337 24.6657 19.7467 24.6657 18.9263C24.6657 18.1059 24.3405 17.3189 23.7613 16.7378C23.7303 16.7068 21.3243 14.8558 21.3243 14.8558C20.7468 14.3061 19.9798 14.0001 19.1826 14.0012C18.3853 14.0023 17.6192 14.3105 17.0433 14.8618L15.1373 16.4678C13.5814 15.8239 12.1681 14.879 10.9785 13.6873C9.78895 12.4957 8.84648 11.0807 8.20526 9.52381L9.80526 7.62381C10.357 7.04798 10.6656 6.28168 10.6669 5.48421C10.6682 4.68674 10.3621 3.91943 9.81226 3.34181C9.81226 3.34181 7.95926 0.938807 7.92826 0.907807C7.35772 0.333555 6.58415 0.00682856 5.77469 -0.00177868C4.96524 -0.0103859 4.18489 0.299817 3.60226 0.861807L2.45226 1.86181C-4.34174 9.74381 10.2883 24.2608 18.4303 23.9998C19.2524 24.0046 20.0673 23.8446 20.8266 23.5292C21.5859 23.2139 22.2743 22.7496 22.8513 22.1638Z" fill="#F90256"/>
</g>
<defs>
<clipPath id="clip0_671_874">
<rect width="24" height="24" fill="white" transform="translate(0.667969)"/>
</clipPath>
</defs>
</svg>
