<svg width="80" height="80" viewBox="0 0 80 80" fill="none" xmlns="http://www.w3.org/2000/svg">
<path d="M66 0H14C6.26801 0 0 6.26801 0 14V66C0 73.732 6.26801 80 14 80H66C73.732 80 80 73.732 80 66V14C80 6.26801 73.732 0 66 0Z" fill="#001E36"/>
<path d="M18 56.7175V22.8673C18 22.6251 18.1213 22.5039 18.364 22.5039C20.9985 22.4347 24.3437 22.4001 28.3995 22.4001C33.1832 22.4001 36.6844 23.473 38.9029 25.619C41.1561 27.7649 42.2827 30.4127 42.2827 33.5623C42.2827 37.4734 40.8961 40.3808 38.123 42.2845C35.3498 44.1881 31.8659 45.1399 27.6715 45.1399H24.6037V56.6656C24.6037 56.9425 24.465 57.0809 24.1877 57.0809H18.416C18.1387 57.0809 18 56.9598 18 56.7175ZM24.6037 27.3842V40.1558C25.089 40.2251 26.2156 40.2597 27.9835 40.2597C30.306 40.2597 32.1779 39.7578 33.5992 38.7541C35.0551 37.7157 35.7831 36.0371 35.7831 33.7181C35.7831 31.676 35.1418 30.1012 33.8592 28.9936C32.6112 27.886 30.7913 27.3322 28.3995 27.3322C27.8102 27.3322 27.2209 27.3495 26.6316 27.3842C26.0769 27.3842 25.6089 27.3842 25.2276 27.3842C24.881 27.3842 24.673 27.3842 24.6037 27.3842Z" fill="#31A8FE"/>
<path d="M60.4241 37.7676C58.4829 36.5562 56.455 35.9505 54.3404 35.9505C53.1271 35.9505 52.2259 36.1755 51.6366 36.6255C51.0819 37.0754 50.8046 37.6119 50.8046 38.2349C50.8046 38.8579 51.0473 39.4117 51.5326 39.8962C52.0179 40.3462 53.0405 40.8827 54.6004 41.5057C57.4776 42.6133 59.4882 43.7901 60.6321 45.0361C61.8107 46.2475 62.4 47.8223 62.4 49.7606C62.4 52.1141 61.4987 54.0178 59.6961 55.4715C57.9282 56.8905 55.519 57.6001 52.4685 57.6001C49.418 57.6001 46.9221 57.0463 44.9809 55.9387C44.7729 55.8695 44.6689 55.6964 44.6689 55.4196V50.5912C44.6689 50.4528 44.7036 50.3663 44.7729 50.3316C44.8769 50.2624 44.9636 50.2624 45.0329 50.3316C47.2861 51.993 49.6953 52.8237 52.2605 52.8237C53.4738 52.8237 54.3924 52.616 55.0164 52.2007C55.675 51.7507 56.0043 51.1796 56.0043 50.4874C56.0043 49.7606 55.7443 49.1549 55.2244 48.6703C54.7044 48.1511 53.6818 47.5973 52.1565 47.0089C49.3833 45.936 47.4421 44.7938 46.3328 43.5824C45.2582 42.3364 44.7209 40.7788 44.7209 38.9098C44.7209 36.7639 45.5355 34.9641 47.1648 33.5104C48.794 32.0567 51.1166 31.3299 54.1324 31.3299C56.9403 31.3299 59.1068 31.7106 60.6321 32.4721C60.8054 32.5759 60.8921 32.8009 60.8921 33.147V37.4561C60.8921 37.8715 60.7361 37.9753 60.4241 37.7676Z" fill="#31A8FE"/>
</svg>
