<svg width="80" height="80" viewBox="0 0 80 80" fill="none" xmlns="http://www.w3.org/2000/svg">
<g clip-path="url(#clip0_602_50099)">
<path d="M14.1667 6.44812e-06H65.8333C67.6942 -0.00179242 69.5372 0.372807 71.2568 1.10237C72.9763 1.83193 74.5387 2.90212 75.8546 4.25171C77.1704 5.60129 78.2139 7.20377 78.9252 8.96743C79.6365 10.7311 80.0017 12.6213 80 14.5299V65.4701C80.0017 67.3787 79.6365 69.2689 78.9252 71.0326C78.2139 72.7962 77.1704 74.3987 75.8546 75.7483C74.5387 77.0979 72.9763 78.1681 71.2568 78.8976C69.5372 79.6272 67.6942 80.0018 65.8333 80H14.1667C12.3058 80.0018 10.4628 79.6272 8.74325 78.8976C7.02368 78.1681 5.46126 77.0979 4.14541 75.7483C2.82957 74.3987 1.78613 72.7962 1.07481 71.0326C0.363487 69.2689 -0.00174761 67.3787 6.28692e-06 65.4701V14.5299C-0.00174761 12.6213 0.363487 10.7311 1.07481 8.96743C1.78613 7.20377 2.82957 5.60129 4.14541 4.25171C5.46126 2.90212 7.02368 1.83193 8.74325 1.10237C10.4628 0.372807 12.3058 -0.00179242 14.1667 6.44812e-06Z" fill="#EFEFEF"/>
<path fill-rule="evenodd" clip-rule="evenodd" d="M22.1505 32.2501L39.9975 66.9845L10 32.2501H22.1505Z" fill="#EA6C00"/>
<path fill-rule="evenodd" clip-rule="evenodd" d="M57.8495 32.2501L40.0025 66.9845L70 32.2501H57.8495Z" fill="#EA6C00"/>
<path fill-rule="evenodd" clip-rule="evenodd" d="M22.1484 32.2501H57.8423L39.9954 66.9845L22.1484 32.2501Z" fill="#FDAD00"/>
<path fill-rule="evenodd" clip-rule="evenodd" d="M39.9954 13.0004L23.0878 14.7776L22.1484 32.2502L39.9954 13.0004Z" fill="#FDD231"/>
<path fill-rule="evenodd" clip-rule="evenodd" d="M39.9968 13.0004L56.9044 14.7776L57.8438 32.2502L39.9968 13.0004Z" fill="#FDD231"/>
<path fill-rule="evenodd" clip-rule="evenodd" d="M70 32.2503L56.9101 14.7776L57.8495 32.2503H70Z" fill="#FDAD00"/>
<path fill-rule="evenodd" clip-rule="evenodd" d="M10 32.2503L23.0899 14.7776L22.1505 32.2503H10Z" fill="#FDAD00"/>
<path fill-rule="evenodd" clip-rule="evenodd" d="M39.9954 13.0004L22.1484 32.2502H57.8423L39.9954 13.0004Z" fill="#FEEEB7"/>
</g>
<defs>
<clipPath id="clip0_602_50099">
<rect width="80" height="80" fill="white"/>
</clipPath>
</defs>
</svg>
