<svg width="80" height="80" viewBox="0 0 80 80" fill="none" xmlns="http://www.w3.org/2000/svg">
<g clip-path="url(#clip0_602_50131)">
<path d="M14.1667 6.44812e-06H65.8333C67.6942 -0.00179242 69.5372 0.372807 71.2568 1.10237C72.9763 1.83193 74.5387 2.90212 75.8546 4.25171C77.1704 5.60129 78.2139 7.20377 78.9252 8.96743C79.6365 10.7311 80.0018 12.6213 80 14.5299V65.4701C80.0018 67.3787 79.6365 69.2689 78.9252 71.0326C78.2139 72.7962 77.1704 74.3987 75.8546 75.7483C74.5387 77.0979 72.9763 78.1681 71.2568 78.8976C69.5372 79.6272 67.6942 80.0018 65.8333 80H14.1667C12.3058 80.0018 10.4628 79.6272 8.74325 78.8976C7.02368 78.1681 5.46126 77.0979 4.14541 75.7483C2.82957 74.3987 1.78613 72.7962 1.07481 71.0326C0.363487 69.2689 -0.00174761 67.3787 6.28692e-06 65.4701V14.5299C-0.00174761 12.6213 0.363487 10.7311 1.07481 8.96743C1.78613 7.20377 2.82957 5.60129 4.14541 4.25171C5.46126 2.90212 7.02368 1.83193 8.74325 1.10237C10.4628 0.372807 12.3058 -0.00179242 14.1667 6.44812e-06Z" fill="#028CB0"/>
<path d="M17.1211 39.9994C17.1211 49.0548 22.3833 56.8796 30.014 60.5883L19.1017 30.6894C17.7935 33.6187 17.1186 36.7912 17.1211 39.9994ZM55.4408 38.845C55.4408 36.0178 54.4252 34.0598 53.5542 32.5359C52.3946 30.6515 51.3081 29.0557 51.3081 27.1713C51.3081 25.0684 52.9026 23.1109 55.1491 23.1109C55.2505 23.1109 55.3467 23.1235 55.446 23.1292C51.3756 19.4005 45.9531 17.1239 39.9975 17.1239C32.0055 17.1239 24.9742 21.2244 20.8838 27.4351C21.4205 27.4512 21.9267 27.4621 22.3559 27.4621C24.7487 27.4621 28.4526 27.1718 28.4526 27.1718C29.6858 27.0991 29.8312 28.9103 28.5998 29.0561C28.5998 29.0561 27.36 29.202 25.981 29.2742L34.3117 54.0532L39.3184 39.0387L35.7538 29.2738C34.5219 29.2015 33.3549 29.0557 33.3549 29.0557C32.1221 28.9834 32.2667 27.0986 33.4994 27.1713C33.4994 27.1713 37.2773 27.4617 39.5252 27.4617C41.9175 27.4617 45.6219 27.1713 45.6219 27.1713C46.8559 27.0986 47.0009 28.9099 45.7686 29.0557C45.7686 29.0557 44.5267 29.2015 43.1503 29.2738L51.4173 53.8652L53.6987 46.2402C54.6881 43.076 55.4408 40.8034 55.4408 38.845Z" fill="white"/>
<path d="M40.4067 41.9998L33.543 61.944C35.6414 62.5624 37.8177 62.8764 40.0053 62.8764C42.6693 62.8764 45.2241 62.4154 47.6021 61.5797C47.5383 61.4798 47.4838 61.3743 47.4393 61.2645L40.4067 41.9998ZM60.0784 29.0233C60.1768 29.752 60.2325 30.5346 60.2325 31.3756C60.2325 33.697 59.799 36.3066 58.4931 39.5696L51.5053 59.7728C58.3063 55.8068 62.8808 48.4386 62.8808 39.9988C62.8869 36.1625 61.9229 32.387 60.0784 29.0233Z" fill="white"/>
<path d="M39.999 13.3332C25.2952 13.3332 13.332 25.2955 13.332 39.9992C13.332 54.7047 25.2948 66.6669 39.999 66.6669C54.7023 66.6669 66.6672 54.7051 66.6672 39.9992C66.6667 25.2955 54.7023 13.3332 39.999 13.3332ZM39.999 65.4442C25.9695 65.4442 14.5548 54.0295 14.5548 39.9992C14.5548 25.9702 25.969 14.5564 39.999 14.5564C54.028 14.5564 65.4418 25.9702 65.4418 39.9992C65.4418 54.0295 54.0276 65.4442 39.999 65.4442Z" fill="white"/>
</g>
<defs>
<clipPath id="clip0_602_50131">
<rect width="80" height="80" fill="white"/>
</clipPath>
</defs>
</svg>
